<?xml version="1.0" standalone="no"?>
<!DOCTYPE svg PUBLIC "-//W3C//DTD SVG 20010904//EN"
 "http://www.w3.org/TR/2001/REC-SVG-20010904/DTD/svg10.dtd">
<svg version="1.0" xmlns="http://www.w3.org/2000/svg"
 width="299.000000pt" height="299.000000pt" viewBox="0 0 299.000000 299.000000"
 preserveAspectRatio="xMidYMid meet">
<metadata>
Created by potrace 1.11, written by Peter Selinger 2001-2013
</metadata>
<g transform="translate(0.000000,299.000000) scale(0.100000,-0.100000)"
fill="#000000" stroke="none">
<path d="M2457 1943 l-77 -78 0 73 0 72 -137 0 -138 0 -87 -87 -88 -88 -88 88
-87 87 -129 0 -129 0 -129 -127 -128 -127 -123 122 -122 122 -180 6 -180 6
-167 -168 -168 -169 0 146 c0 125 -2 148 -16 153 -9 3 -76 6 -150 6 l-134 0 0
-493 c0 -370 3 -496 12 -505 8 -8 55 -12 145 -12 121 0 133 2 143 19 5 11 10
82 10 157 l0 138 158 -157 159 -157 183 2 c161 3 184 5 194 20 9 16 -23 52
-229 258 l-240 240 135 135 135 135 142 -142 143 -143 0 -240 c0 -174 3 -244
12 -253 17 -17 259 -17 276 0 9 9 12 79 12 253 l0 241 45 44 45 44 0 -292 0
-292 150 0 150 0 0 292 0 292 75 -74 75 -74 75 74 75 74 0 -292 0 -292 150 0
150 0 0 100 0 100 155 0 155 0 0 -100 0 -100 150 0 150 0 0 293 0 292 -228
228 -227 227 -78 -77z m-1357 -128 c74 -74 139 -135 144 -135 6 0 59 51 118
113 l107 112 1 -135 0 -136 -70 -69 -70 -69 0 -233 0 -233 -90 0 -90 0 0 233
0 232 -221 228 -221 227 129 0 128 0 135 -135z m732 38 l98 -98 98 98 97 97
98 0 97 0 0 -73 0 -72 -90 -90 -90 -90 0 40 0 40 -105 -105 -105 -105 -105
105 -105 105 0 -333 0 -332 -95 0 -95 0 0 455 0 455 102 0 103 0 97 -97z
m1098 -560 l0 -253 -90 0 -90 0 0 100 0 100 -215 0 -215 0 0 -100 0 -100 -90
0 -90 0 0 252 0 253 197 197 198 198 197 -197 198 -198 0 -252z m-2313 359
c-81 -81 -147 -154 -147 -162 0 -8 100 -115 222 -237 l223 -223 -137 0 -136 0
-173 180 c-129 134 -178 180 -194 178 -19 -3 -20 -10 -23 -180 l-2 -178 -95 0
-95 0 0 445 0 445 90 0 90 0 2 -161 c4 -228 -6 -228 215 -6 l178 177 65 -65
65 -65 -148 -148z"/>
<path d="M2406 1538 l-116 -123 242 -3 c132 -1 243 0 246 3 8 8 -230 245 -245
245 -6 0 -63 -55 -127 -122z m170 10 c16 -18 38 -43 48 -55 l19 -23 -109 0
-108 0 54 55 c30 30 57 55 60 55 3 0 19 -15 36 -32z"/>
</g>
</svg>
